<svg width="15" height="13" viewBox="0 0 15 13" fill="none" xmlns="http://www.w3.org/2000/svg">
<path d="M13.654 4.51641L9.70931 3.93985L7.94595 0.344537C7.89779 0.2461 7.81855 0.166412 7.72067 0.117975C7.4752 -0.00390047 7.17691 0.097662 7.05417 0.344537L5.29081 3.93985L1.34616 4.51641C1.23741 4.53204 1.13798 4.5836 1.06185 4.66172C0.969818 4.75686 0.919103 4.88485 0.920851 5.01757C0.922599 5.15029 0.976666 5.27689 1.07117 5.36954L3.92518 8.16797L3.2509 12.1195C3.23509 12.2115 3.24521 12.306 3.2801 12.3924C3.31499 12.4789 3.37327 12.5537 3.44832 12.6086C3.52337 12.6634 3.61219 12.696 3.70472 12.7026C3.79724 12.7092 3.88976 12.6897 3.97179 12.6461L7.50006 10.7805L11.0283 12.6461C11.1247 12.6977 11.2365 12.7148 11.3437 12.6961C11.6141 12.6492 11.7958 12.3914 11.7492 12.1195L11.0749 8.16797L13.9289 5.36954C14.0066 5.29297 14.0579 5.19297 14.0734 5.0836C14.1154 4.81016 13.9258 4.55704 13.654 4.51641V4.51641Z" fill="#FADB14"/>
</svg>
